<svg xmlns="http://www.w3.org/2000/svg" xmlns:xlink="http://www.w3.org/1999/xlink" width="500" zoomAndPan="magnify" viewBox="0 0 375 374.999991" height="500" preserveAspectRatio="xMidYMid meet" version="1.0"><defs><clipPath id="00d4bdf0cb"><path d="M 263 41 L 306 41 L 306 356.25 L 263 356.25 Z M 263 41 " clip-rule="nonzero"/></clipPath><clipPath id="1004bc8a30"><path d="M 12 314 L 223 314 L 223 356.25 L 12 356.25 Z M 12 314 " clip-rule="nonzero"/></clipPath></defs><rect x="-37.5" width="450" fill="#ffffff" y="-37.499999" height="449.999989" fill-opacity="1"/><rect x="-37.5" width="450" fill="#ffffff" y="-37.499999" height="449.999989" fill-opacity="1"/><rect x="-37.5" width="450" fill="#ffffff" y="-37.499999" height="449.999989" fill-opacity="1"/><g clip-path="url(#00d4bdf0cb)"><path fill="#5d5d5d" d="M 305.914062 356.25 L 263.96875 356.25 L 263.96875 41.808594 L 305.914062 41.808594 Z M 305.914062 356.25 " fill-opacity="1" fill-rule="evenodd"/></g><path fill="#5d5d5d" d="M 284.9375 71.453125 L 333.023438 119.519531 L 362.683594 89.875 L 299.769531 26.984375 C 291.578125 18.800781 278.300781 18.800781 270.109375 26.984375 L 207.195312 89.875 L 236.855469 119.519531 Z M 284.9375 71.453125 " fill-opacity="1" fill-rule="evenodd"/><path fill="#5d5d5d" d="M 222.027344 188.546875 L 138.140625 188.546875 L 138.140625 146.621094 L 222.027344 146.621094 Z M 222.027344 188.546875 " fill-opacity="1" fill-rule="evenodd"/><path fill="#5d5d5d" d="M 222.027344 272.398438 L 75.226562 272.398438 L 75.226562 230.472656 L 222.027344 230.472656 Z M 222.027344 272.398438 " fill-opacity="1" fill-rule="evenodd"/><g clip-path="url(#1004bc8a30)"><path fill="#5d5d5d" d="M 222.027344 356.25 L 12.308594 356.25 L 12.308594 314.324219 L 222.027344 314.324219 Z M 222.027344 356.25 " fill-opacity="1" fill-rule="evenodd"/></g></svg>