<svg xmlns="http://www.w3.org/2000/svg" xmlns:xlink="http://www.w3.org/1999/xlink" width="500" zoomAndPan="magnify" viewBox="0 0 375 374.999991" height="500" preserveAspectRatio="xMidYMid meet" version="1.0"><defs><clipPath id="8650e4eb81"><path d="M 69 18.75 L 112 18.75 L 112 334 L 69 334 Z M 69 18.75 " clip-rule="nonzero"/></clipPath><clipPath id="0dacf2070d"><path d="M 152 18.75 L 363 18.75 L 363 61 L 152 61 Z M 152 18.75 " clip-rule="nonzero"/></clipPath></defs><g clip-path="url(#8650e4eb81)"><path fill="#5d5d5d" d="M 69.085938 18.75 L 111.027344 18.75 L 111.027344 333.191406 L 69.085938 333.191406 Z M 69.085938 18.75 " fill-opacity="1" fill-rule="evenodd"/></g><path fill="#5d5d5d" d="M 90.058594 303.546875 L 41.972656 255.480469 L 12.316406 285.125 L 75.230469 348.015625 C 83.417969 356.199219 96.699219 356.199219 104.886719 348.015625 L 167.804688 285.125 L 138.144531 255.480469 Z M 90.058594 303.546875 " fill-opacity="1" fill-rule="evenodd"/><path fill="#5d5d5d" d="M 152.972656 186.453125 L 236.859375 186.453125 L 236.859375 228.378906 L 152.972656 228.378906 Z M 152.972656 186.453125 " fill-opacity="1" fill-rule="evenodd"/><path fill="#5d5d5d" d="M 152.972656 102.601562 L 299.773438 102.601562 L 299.773438 144.527344 L 152.972656 144.527344 Z M 152.972656 102.601562 " fill-opacity="1" fill-rule="evenodd"/><g clip-path="url(#0dacf2070d)"><path fill="#5d5d5d" d="M 152.972656 18.75 L 362.6875 18.75 L 362.6875 60.675781 L 152.972656 60.675781 Z M 152.972656 18.75 " fill-opacity="1" fill-rule="evenodd"/></g></svg>